# xmcd
#
# Track frame offsets: 
#        150
#        26642
#        49546
#        72751
#        92996
#        112430
#        137887
#        160055
#        179863
#        199768
#
# Disc length: 2949 seconds
#
# Revision: 0
# Processed by: cddbd v1.5.2PL0 Copyright (c) Steve Scherf et al.
# Submitted via: ExactAudioCopy v1.0b3
#
DISCID=960b830a
DTITLE=Magenta Harvest - Volatile Waters
DYEAR=2013
DGENRE=death
TTITLE0=End and No Remebrance
TTITLE1=One Walks Down
TTITLE2=Spawn of Neglect
TTITLE3=Volatile Waters
TTITLE4=Apparition of Ending
TTITLE5=Interrupted Fleshwork
TTITLE6=Limbo in Rime
TTITLE7=Spiteful Beings to Earth Were Bound
TTITLE8=A Symposium of Frost
TTITLE9=Carrion of Men
EXTD=
EXTT0=
EXTT1=
EXTT2=
EXTT3=
EXTT4=
EXTT5=
EXTT6=
EXTT7=
EXTT8=
EXTT9=
PLAYORDER=
